<?xml version="1.0" encoding="UTF-8" standalone="no"?>
<!DOCTYPE svg PUBLIC "-//W3C//DTD SVG 1.1//EN" "http://www.w3.org/Graphics/SVG/1.1/DTD/svg11.dtd">
<svg width="100%" height="100%" viewBox="0 0 64 64" version="1.1" xmlns="http://www.w3.org/2000/svg" xmlns:xlink="http://www.w3.org/1999/xlink" xml:space="preserve" xmlns:serif="http://www.serif.com/" style="fill-rule:evenodd;clip-rule:evenodd;stroke-linejoin:round;stroke-miterlimit:2;">
    <g transform="matrix(-0.232045,2.84173e-17,-2.85196e-18,-0.023288,255.638,15.8226)">
        <rect x="845" y="0" width="239" height="305" style="fill:white;"/>
    </g>
    <g transform="matrix(-0.232045,2.84173e-17,-2.85196e-18,-0.023288,255.638,55.2652)">
        <rect x="845" y="0" width="239" height="305" style="fill:white;"/>
    </g>
    <g id="path24" transform="matrix(0.00531942,0,0,0.00531942,-0.16987,8.71976)">
        <path d="M31.934,823.146L31.934,7932.6C31.934,8383.78 401.079,8752.92 852.256,8752.92L1399.14,8752.92L1399.14,823.146L31.934,823.146Z" style="fill:white;fill-rule:nonzero;"/>
    </g>
    <g id="path26" transform="matrix(0.00531942,0,0,0.00531942,-0.16987,8.71976)">
        <path d="M10696.1,823.146L10696.1,8752.92L11243,8752.92C11694.2,8752.92 12063.3,8383.78 12063.3,7932.6L12063.3,823.146L10696.1,823.146Z" style="fill:white;fill-rule:nonzero;"/>
    </g>
    <g id="g29" transform="matrix(0.00531942,0,0,0.00531942,-0.16987,8.71976)">
        <path id="path47" d="M11243,-0L6047.63,3554.73L852.257,-0C401.08,-0 31.935,369.145 31.935,820.322C31.935,1101.28 173.44,1349.43 388.775,1497.09L6047.63,5369.01L11706.5,1497.09C11921.8,1349.43 12063.3,1101.28 12063.3,820.322C12063.3,369.145 11694.2,-0 11243,-0Z" style="fill:white;fill-rule:nonzero;"/>
    </g>
</svg>
