<?xml version="1.0" encoding="UTF-8" standalone="no"?>
<!DOCTYPE svg PUBLIC "-//W3C//DTD SVG 1.1//EN" "http://www.w3.org/Graphics/SVG/1.1/DTD/svg11.dtd">
<svg width="100%" height="100%" viewBox="0 0 3000 334" version="1.1" xmlns="http://www.w3.org/2000/svg" xmlns:xlink="http://www.w3.org/1999/xlink" xml:space="preserve" xmlns:serif="http://www.serif.com/" style="fill-rule:evenodd;clip-rule:evenodd;stroke-linecap:round;stroke-linejoin:round;stroke-miterlimit:2;">
    <g transform="matrix(8.33333,0,0,8.33333,8.33333,8.33333)">
        <g transform="matrix(1,0,0,1,-11.047,13.6636)">
            <g>
                <g transform="matrix(1,0,0,1,20.311,18.936)">
                    <text x="0px" y="0px" style="font-family:'BarlowCondensed-BoldItalic', 'Barlow Condensed';font-weight:700;font-style:italic;font-stretch:condensed;font-size:36px;fill:rgb(223,172,0);">TH</text>
                </g>
                <g transform="matrix(1,0,0,1,53.323,18.936)">
                    <text x="0px" y="0px" style="font-family:'BarlowCondensed-BoldItalic', 'Barlow Condensed';font-weight:700;font-style:italic;font-stretch:condensed;font-size:36px;fill:rgb(223,172,0);">E OOTP</text>
                </g>
            </g>
        </g>
        <g transform="matrix(1,0,0,1,167.885,13.6636)">
            <g>
                <g transform="matrix(1,0,0,1,20.311,18.936)">
                    <text x="0px" y="0px" style="font-family:'BarlowCondensed-BoldItalic', 'Barlow Condensed';font-weight:700;font-style:italic;font-stretch:condensed;font-size:36px;fill:rgb(223,172,0);">C</text>
                </g>
                <g transform="matrix(1,0,0,1,36.151,18.936)">
                    <text x="0px" y="0px" style="font-family:'BarlowCondensed-BoldItalic', 'Barlow Condensed';font-weight:700;font-style:italic;font-stretch:condensed;font-size:36px;fill:rgb(223,172,0);">AL<tspan x="31.572px " y="0px ">C</tspan>UL</text>
                </g>
                <g transform="matrix(1,0,0,1,116.143,18.936)">
                    <text x="0px" y="0px" style="font-family:'BarlowCondensed-BoldItalic', 'Barlow Condensed';font-weight:700;font-style:italic;font-stretch:condensed;font-size:36px;fill:rgb(223,172,0);">A<tspan x="14.724px 30.384px " y="0px 0px ">TO</tspan>R</text>
                </g>
            </g>
        </g>
    </g>
    <g transform="matrix(8.33333,0,0,8.33333,0,0)">
        <g transform="matrix(1,0,0,1,-11.047,13.6636)">
            <g>
                <g transform="matrix(1,0,0,1,20.311,18.936)">
                    <text x="0px" y="0px" style="font-family:'BarlowCondensed-BoldItalic', 'Barlow Condensed';font-weight:700;font-style:italic;font-stretch:condensed;font-size:36px;fill:white;">TH</text>
                </g>
                <g transform="matrix(1,0,0,1,53.323,18.936)">
                    <text x="0px" y="0px" style="font-family:'BarlowCondensed-BoldItalic', 'Barlow Condensed';font-weight:700;font-style:italic;font-stretch:condensed;font-size:36px;fill:white;">E OOTP</text>
                </g>
            </g>
        </g>
        <g transform="matrix(1,0,0,1,167.885,13.6636)">
            <g>
                <g transform="matrix(1,0,0,1,20.311,18.936)">
                    <text x="0px" y="0px" style="font-family:'BarlowCondensed-BoldItalic', 'Barlow Condensed';font-weight:700;font-style:italic;font-stretch:condensed;font-size:36px;fill:white;">C</text>
                </g>
                <g transform="matrix(1,0,0,1,36.151,18.936)">
                    <text x="0px" y="0px" style="font-family:'BarlowCondensed-BoldItalic', 'Barlow Condensed';font-weight:700;font-style:italic;font-stretch:condensed;font-size:36px;fill:white;">AL<tspan x="31.572px " y="0px ">C</tspan>UL</text>
                </g>
                <g transform="matrix(1,0,0,1,116.143,18.936)">
                    <text x="0px" y="0px" style="font-family:'BarlowCondensed-BoldItalic', 'Barlow Condensed';font-weight:700;font-style:italic;font-stretch:condensed;font-size:36px;fill:white;">A<tspan x="14.724px 30.384px " y="0px 0px ">TO</tspan>R</text>
                </g>
            </g>
        </g>
    </g>
    <g transform="matrix(0.46875,0,0,0.46875,-15,-103.333)">
        <g transform="matrix(8.34637,-2.63365e-30,-8.42768e-29,8.34637,2612.92,308.916)">
            <circle cx="32" cy="32" r="24" style="fill:white;"/>
        </g>
        <g transform="matrix(0.79365,0,0,0.79365,2613.33,309.334)">
            <circle cx="336" cy="336" r="336" style="fill:rgb(253,199,0);"/>
        </g>
        <g id="g24" transform="matrix(1.47959,-4.10301e-15,8.7531e-14,-1.47959,3110.97,576)">
            <g>
                <path id="path26" d="M0,0C0,-86.213 -69.893,-156.105 -156.105,-156.105C-242.321,-156.105 -312.21,-86.213 -312.21,0C-312.21,86.215 -242.321,156.105 -156.105,156.105C-69.893,156.105 0,86.215 0,0" style="fill:white;fill-rule:nonzero;"/>
            </g>
        </g>
        <g id="g32" transform="matrix(1.32501,-3.67437e-15,7.83866e-14,-1.32501,3046.65,667.701)">
            <g>
                <path id="path34" d="M0,0L0.57,2.498C-0.637,2.773 -1.903,2.869 -3.381,2.869C-14.879,2.869 -33.429,1.732 -57.822,-3.481C-64.408,-4.903 -72.822,-6.646 -82.282,-8.023C-91.732,-9.426 -102.219,-10.442 -112.701,-10.442C-123.748,-10.442 -134.17,-8.209 -143.695,-4.182C-157.966,1.842 -170.163,11.963 -178.749,24.684C-187.348,37.43 -192.333,52.648 -192.346,69.208C-192.343,80.253 -190.12,90.679 -186.096,100.2C-180.066,114.473 -169.94,126.669 -157.22,135.253C-144.501,143.837 -129.317,148.82 -112.791,148.845L-112.691,148.845L-112.525,148.853L-112.636,151.414L-112.636,148.85C-102.179,148.848 -91.713,147.831 -82.292,146.441C-72.822,145.051 -64.408,143.309 -57.822,141.904C-33.429,136.681 -14.879,135.541 -3.376,135.541C4.732,135.541 9.324,136.104 10.021,136.197L12.329,136.508L11.959,146.278L3.806,146.714L4.678,155.5L4.667,155.846L4.662,155.981L4.646,156.109L4.632,156.109L4.646,156.109L4.632,156.109L4.646,156.109C4.597,156.778 4.427,159.029 3.436,161.605L3.46,161.541L3.43,161.615C2.859,163.078 1.953,164.823 0.335,166.32L-1.408,164.442L0.36,166.3C-1.308,167.875 -3.676,168.957 -6.4,168.965L-6.57,168.962L-6.471,166.4L-6.471,168.965C-15.615,168.965 -28.661,170.164 -50.767,174.892C-57.553,176.349 -66.768,178.265 -77.395,179.819C-86.559,181.164 -96.815,182.181 -107.547,182.451L-107.613,179.887L-105.049,179.887L-105.049,182.591L-120.354,182.591L-120.354,179.725L-117.789,179.725L-117.904,182.286C-131.586,181.67 -144.76,178.78 -156.839,173.672C-177.209,165.056 -194.489,150.695 -206.706,132.609C-218.465,115.226 -225.461,94.3 -225.984,71.897L-223.42,71.837L-223.42,74.401L-226.084,74.401L-226.084,68.992L-226.082,68.959L-226.082,63.986L-223.385,63.986L-223.385,66.551L-225.95,66.49C-225.604,51.883 -222.579,37.855 -217.166,25.06C-208.549,4.697 -194.194,-12.58 -176.102,-24.801C-158.116,-36.97 -136.349,-44.102 -113.051,-44.161L-113.047,-41.598L-113.332,-44.146L-113.197,-44.161L-113.051,-44.176L-112.701,-44.176C-100.061,-44.176 -88.006,-42.969 -77.395,-41.422C-66.768,-39.859 -57.547,-37.926 -50.771,-36.489C-28.752,-31.781 -14.373,-30.885 -5.108,-30.885L-5.108,-28.32L-5.144,-30.885L-5.043,-30.885C-3.125,-30.855 -1.463,-30.129 -0.186,-28.893C1.441,-27.295 1.982,-25.377 2.253,-24.145L2.264,-24.104C2.559,-22.702 2.609,-21.415 2.613,-20.398L2.613,-20.383C2.613,-19.361 2.554,-18.555 2.504,-18.084L-0.045,-18.335L2.494,-18.681L4.001,-7.578L1.462,-7.232L3.125,-9.186L3.395,-8.955L3.445,-8.91L3.5,-8.859C3.886,-8.494 4.392,-7.969 4.862,-7.262L4.873,-7.247L4.887,-7.227C5.293,-6.631 6.004,-5.334 6.014,-3.687L6.014,-3.586C5.979,-2.139 5.523,-0.867 4.527,0.29C3.285,1.697 1.672,2.243 0.621,2.488L0.601,2.493L0.57,2.498L0,0L-0.621,-2.49C0.18,-2.705 0.37,-2.79 0.716,-3.146L0.886,-3.586L0.886,-3.592L0.58,-4.443L2.734,-5.835L0.605,-4.408L-0.035,-5.145L1.732,-7.002L0.07,-5.049L-0.201,-5.279L-0.947,-5.915L-2.625,-18.29L-2.6,-18.586C-2.564,-18.926 -2.515,-19.566 -2.515,-20.383L-2.515,-20.368C-2.52,-21.225 -2.569,-22.161 -2.755,-23.053L-0.246,-23.578L-2.744,-23.013C-2.985,-24.039 -3.186,-24.63 -3.802,-25.256L-5.043,-25.757L-5.108,-25.757C-14.725,-25.757 -29.513,-26.693 -51.838,-31.471C-58.6,-32.908 -67.689,-34.812 -78.135,-36.344C-88.577,-37.871 -100.387,-39.049 -112.701,-39.049L-112.911,-39.049L-112.911,-41.612L-112.631,-39.063L-112.761,-39.049L-112.9,-39.033L-113.041,-39.033C-135.292,-38.973 -156.058,-32.172 -173.23,-20.554C-190.508,-8.885 -204.217,7.621 -212.443,27.058C-217.601,39.247 -220.491,52.634 -220.821,66.611L-220.881,69.115L-223.518,69.115L-223.518,66.551L-220.954,66.551L-220.954,69.16L-220.957,69.192L-220.957,69.188L-220.957,71.837L-223.521,71.837L-223.521,69.272L-220.917,69.272L-220.856,71.777C-220.358,93.184 -213.677,113.15 -202.459,129.737C-190.788,147.01 -174.284,160.724 -154.841,168.95C-143.357,173.808 -130.785,176.572 -117.674,177.163L-115.225,177.273L-115.225,177.463L-107.613,177.463L-107.613,180.027L-110.177,180.027L-110.177,177.388L-107.678,177.323C-97.186,177.06 -87.13,176.066 -78.135,174.747C-67.689,173.216 -58.594,171.329 -51.838,169.878C-29.513,165.101 -16.086,163.836 -6.471,163.836L-6.426,163.836L-6.371,163.839L-6.431,165.437L-6.426,163.836L-6.371,163.839L-6.431,165.437L-6.426,163.836L-6.4,163.836C-5.104,163.847 -3.896,163.275 -3.176,162.584L-3.155,162.564C-2.305,161.773 -1.758,160.794 -1.348,159.748L-1.353,159.757C-0.947,158.718 -0.722,157.702 -0.602,156.94L-0.486,156.021L-0.467,155.746L-0.441,155.443L2.104,155.776L-0.461,155.706L-0.461,155.688L-1.823,141.881L7.011,141.408L7.115,138.641L9.68,138.739L9.34,141.28C8.869,141.218 4.492,140.669 -3.376,140.669C-14.539,140.669 -32.729,141.774 -56.752,146.917C-63.367,148.332 -71.9,150.1 -81.546,151.514C-91.151,152.929 -101.849,153.976 -112.636,153.978L-112.691,153.978L-112.861,153.971L-112.751,151.409L-112.751,153.973L-112.796,153.973C-130.359,153.951 -146.57,148.635 -160.089,139.505C-173.626,130.365 -184.393,117.397 -190.818,102.198C-195.103,92.062 -197.471,80.944 -197.474,69.205C-197.466,51.607 -192.146,35.365 -183.001,21.819C-173.858,8.277 -160.89,-2.484 -145.693,-8.91C-135.557,-13.191 -124.439,-15.57 -112.701,-15.57C-101.889,-15.57 -91.172,-14.523 -81.536,-13.097C-71.9,-11.694 -63.367,-9.922 -56.746,-8.499C-32.729,-3.366 -14.539,-2.26 -3.381,-2.26C-2.124,-2.26 -1.248,-2.344 -0.571,-2.5L0,0L-0.621,-2.49L0,0Z" style="fill:rgb(16,28,79);fill-rule:nonzero;stroke:rgb(16,28,79);stroke-width:26.83px;"/>
            </g>
        </g>
        <g id="g28" transform="matrix(1.32501,-3.67437e-15,7.83866e-14,-1.32501,3046.65,667.701)">
            <g>
                <path id="path30" d="M0,0C-0.941,0.215 -2.014,0.305 -3.381,0.305C-14.709,0.305 -33.078,-0.816 -57.287,-5.99C-63.888,-7.412 -72.361,-9.17 -81.912,-10.563C-91.451,-11.975 -102.054,-13.006 -112.701,-13.006C-124.094,-13.006 -134.864,-10.703 -144.694,-6.546C-159.428,-0.321 -172.011,10.121 -180.875,23.252C-189.747,36.397 -194.9,52.128 -194.91,69.205C-194.907,80.598 -192.611,91.371 -188.457,101.199C-182.229,115.935 -171.783,128.518 -158.654,137.379C-145.536,146.236 -129.838,151.384 -112.796,151.409L-112.751,151.409L-112.636,151.414C-102.014,151.412 -91.432,150.38 -81.916,148.978C-72.361,147.576 -63.888,145.82 -57.287,144.411C-33.078,139.227 -14.709,138.105 -3.376,138.105C4.611,138.105 9.1,138.661 9.68,138.739L9.484,143.842L0.991,144.298L2.107,155.593L2.104,155.776C2.083,155.929 2.013,158.165 1.041,160.682C0.551,161.936 -0.176,163.298 -1.408,164.442C-2.615,165.589 -4.433,166.42 -6.471,166.4C-15.851,166.4 -29.087,167.632 -51.303,172.385C-58.073,173.837 -67.229,175.741 -77.765,177.283C-86.844,178.615 -97,179.619 -107.613,179.887L-107.613,180.027L-117.789,180.027L-117.789,179.725C-131.186,179.121 -144.059,176.294 -155.84,171.311C-175.747,162.89 -192.639,148.853 -204.583,131.174C-216.071,114.187 -222.91,93.742 -223.42,71.837L-223.521,71.837L-223.521,69.09L-223.518,69.057L-223.518,66.551L-223.385,66.551C-223.047,52.258 -220.09,38.551 -214.804,26.057C-206.383,6.159 -192.351,-10.732 -174.667,-22.677C-157.087,-34.57 -135.82,-41.537 -113.047,-41.598L-112.911,-41.612L-112.701,-41.612C-100.221,-41.612 -88.291,-40.42 -77.765,-38.883C-67.229,-37.336 -58.073,-35.418 -51.303,-33.98C-29.132,-29.237 -14.549,-28.32 -5.108,-28.32C-3.937,-28.341 -2.74,-27.82 -1.998,-27.079C-0.872,-25.963 -0.502,-24.71 -0.246,-23.578C-0.006,-22.432 0.045,-21.32 0.05,-20.383C0.05,-19.467 -0.006,-18.74 -0.045,-18.335L1.462,-7.232L1.732,-7.002C2.053,-6.696 2.398,-6.336 2.734,-5.835C3.055,-5.34 3.43,-4.674 3.45,-3.637C3.465,-2.9 3.149,-2.014 2.623,-1.434C1.828,-0.547 0.926,-0.23 0,0" style="fill:rgb(253,199,0);fill-rule:nonzero;"/>
            </g>
        </g>
        <g id="g36" transform="matrix(1.47959,-4.10301e-15,8.7531e-14,-1.47959,2880,784.911)">
            <g>
                <path id="path38" d="M0,0C-39,0 -74.279,15.8 -99.84,41.355C-125.396,66.916 -141.193,102.197 -141.196,141.195C-141.193,180.195 -125.396,215.474 -99.84,241.038C-74.279,266.591 -39.002,282.389 0,282.391C38.998,282.389 74.279,266.591 99.84,241.038C125.396,215.474 141.195,180.198 141.195,141.195C141.195,102.197 125.396,66.916 99.84,41.355C74.279,15.8 38.998,0 0,0M0,305.298C-90.632,305.295 -164.1,231.828 -164.103,141.195C-164.1,50.565 -90.632,-22.907 0,-22.907C90.63,-22.907 164.103,50.565 164.103,141.195C164.103,231.828 90.63,305.295 0,305.298" style="fill:rgb(16,28,79);fill-rule:nonzero;stroke:rgb(16,28,79);stroke-width:4.33px;stroke-linecap:butt;"/>
            </g>
        </g>
        <g id="g40" transform="matrix(1.47959,-4.10301e-15,8.7531e-14,-1.47959,2880,784.911)">
            <g>
                <path id="path42" d="M0,-5.129L0,5.127C-37.6,5.133 -71.564,20.348 -96.214,44.981C-120.851,69.631 -136.063,103.596 -136.068,141.195C-136.063,178.795 -120.851,212.76 -96.214,237.412C-71.564,262.046 -37.603,277.258 0,277.263C37.6,277.258 71.564,262.046 96.214,237.412C120.848,212.76 136.063,178.798 136.068,141.195C136.063,103.596 120.848,69.631 96.214,44.981C71.564,20.348 37.6,5.133 0,5.127L0,-5.129C40.395,-5.134 76.993,11.252 103.465,37.73C129.943,64.202 146.329,100.801 146.324,141.195C146.329,181.598 129.943,218.188 103.465,244.664C76.993,271.138 40.395,287.52 0,287.52C-40.402,287.52 -76.993,271.136 -103.465,244.664C-129.94,218.188 -146.324,181.595 -146.324,141.195C-146.324,100.801 -129.94,64.202 -103.465,37.73C-76.993,11.252 -40.399,-5.134 0,-5.129ZM0,300.169L0,310.426C-93.467,310.421 -169.226,234.663 -169.231,141.195C-169.226,47.73 -93.467,-28.03 0,-28.035C93.465,-28.03 169.226,47.73 169.23,141.195C169.226,234.663 93.465,310.421 0,310.426L0,300.169C43.915,300.165 83.624,282.384 112.41,253.608C141.186,224.822 158.969,185.113 158.975,141.195C158.969,97.28 141.186,57.571 112.41,28.785C83.624,0.01 43.915,-17.773 0,-17.779C-43.915,-17.773 -83.626,0.01 -112.413,28.785C-141.188,57.571 -158.969,97.28 -158.974,141.195C-158.974,228.993 -87.798,300.169 0,300.169Z" style="fill:rgb(16,28,79);fill-rule:nonzero;"/>
            </g>
        </g>
        <g transform="matrix(6.25978,0,0,6.25978,2679.69,375.687)">
            <path d="M32,0C49.661,0 64,14.339 64,32C64,49.661 49.661,64 32,64C14.339,64 0,49.661 0,32C0,14.339 14.339,0 32,0ZM32,0C49.661,0 64,14.339 64,32C64,49.661 49.661,64 32,64C14.339,64 0,49.661 0,32C0,14.339 14.339,0 32,0Z" style="fill:white;stroke:white;stroke-width:3.41px;stroke-miterlimit:1.5;"/>
        </g>
    </g>
</svg>
