<?xml version="1.0" encoding="UTF-8" standalone="no"?>
<!DOCTYPE svg PUBLIC "-//W3C//DTD SVG 1.1//EN" "http://www.w3.org/Graphics/SVG/1.1/DTD/svg11.dtd">
<svg width="100%" height="100%" viewBox="0 0 1080 150" version="1.1" xmlns="http://www.w3.org/2000/svg" xmlns:xlink="http://www.w3.org/1999/xlink" xml:space="preserve" xmlns:serif="http://www.serif.com/" style="fill-rule:evenodd;clip-rule:evenodd;stroke-linejoin:round;stroke-miterlimit:2;">
    <g transform="matrix(1,0,0,1,27,-25)">
        <g opacity="0.25">
            <g transform="matrix(1.44,0,0,1.44,973.892,16)">
                <path d="M0,50L25,25L25,50L0,50Z" style="fill:white;"/>
            </g>
            <g transform="matrix(-0.923077,-1.13044e-16,1.13044e-16,-0.923077,1054.2,192.308)">
                <path d="M61.706,61.706C71.511,51.901 85.052,45.833 100,45.833C129.895,45.833 154.167,70.105 154.167,100C154.167,129.895 129.895,154.167 100,154.167C85.052,154.167 71.511,148.099 61.706,138.294L74.478,125.522C81.013,132.056 90.038,136.1 100,136.1C119.924,136.1 136.1,119.924 136.1,100C136.1,80.076 119.924,63.9 100,63.9C90.038,63.9 81.013,67.944 74.478,74.478L61.706,61.706Z" style="fill:white;"/>
            </g>
            <g transform="matrix(1.06066,-1.06066,1.06066,1.06066,833.239,133.663)">
                <path d="M83.609,79.689C85.07,77.753 87.39,76.5 90,76.5C92.61,76.5 94.93,77.753 96.391,79.689C94.657,81.132 92.429,82 90,82C87.571,82 85.343,81.132 83.609,79.689ZM97.804,65.75C99.178,67.463 100,69.636 100,72C100,74.364 99.178,76.537 97.804,78.25C95.971,75.965 93.155,74.5 90,74.5C86.845,74.5 84.029,75.965 82.196,78.25C80.822,76.537 80,74.364 80,72C80,69.636 80.822,67.463 82.196,65.75C84.029,68.035 86.845,69.5 90,69.5C93.155,69.5 95.971,68.035 97.804,65.75ZM83.609,64.311C85.343,62.868 87.571,62 90,62C92.429,62 94.657,62.868 96.391,64.311C94.93,66.247 92.61,67.5 90,67.5C87.39,67.5 85.07,66.247 83.609,64.311Z" style="fill:white;"/>
            </g>
        </g>
    </g>
</svg>
