<?xml version="1.0" encoding="UTF-8" standalone="no"?>
<!DOCTYPE svg PUBLIC "-//W3C//DTD SVG 1.1//EN" "http://www.w3.org/Graphics/SVG/1.1/DTD/svg11.dtd">
<svg width="100%" height="100%" viewBox="0 0 1080 150" version="1.1" xmlns="http://www.w3.org/2000/svg" xmlns:xlink="http://www.w3.org/1999/xlink" xml:space="preserve" xmlns:serif="http://www.serif.com/" style="fill-rule:evenodd;clip-rule:evenodd;stroke-linecap:round;stroke-linejoin:round;stroke-miterlimit:1.5;">
    <rect id="Hover" x="0" y="0" width="1080" height="150" style="fill:url(#_Linear1);"/>
    <g transform="matrix(1,0,0,1,926.392,12.5)">
        <g opacity="0.25">
            <g transform="matrix(1.44,0,0,1.44,74.5,-21.5)">
                <path d="M0,50L25,25L25,50L0,50Z" style="fill:white;"/>
            </g>
            <g transform="matrix(-0.923077,-1.13044e-16,1.13044e-16,-0.923077,154.808,154.808)">
                <path d="M61.706,61.706C71.511,51.901 85.052,45.833 100,45.833C129.895,45.833 154.167,70.105 154.167,100C154.167,129.895 129.895,154.167 100,154.167C85.052,154.167 71.511,148.099 61.706,138.294L74.478,125.522C81.013,132.056 90.038,136.1 100,136.1C119.924,136.1 136.1,119.924 136.1,100C136.1,80.076 119.924,63.9 100,63.9C90.038,63.9 81.013,67.944 74.478,74.478L61.706,61.706Z" style="fill:white;"/>
            </g>
            <g transform="matrix(0.793333,0.458031,-0.515285,0.892499,68.7514,-2.44483)">
                <path d="M6.251,55.724C6.256,53.943 6.957,53.178 8.083,53.178C9.179,53.178 9.722,54.055 9.755,54.11L9.758,54.115L9.757,54.113L33.313,54.571C36.911,54.523 39.71,54.462 44.397,54.462C54.785,54.462 67.977,52.845 77.732,52.845C86.009,52.845 89.239,52.873 90.877,52.873C92.514,52.873 93.581,54.108 93.581,55.745L93.581,55.764C93.573,57.392 92.507,58.617 90.877,58.617C89.239,58.617 86.009,58.645 77.732,58.645C67.977,58.645 54.785,57.028 44.397,57.028C39.71,57.028 36.911,56.967 33.313,56.919L9.757,57.377L9.758,57.375L9.755,57.38C9.722,57.435 9.179,58.312 8.083,58.312C6.953,58.312 6.251,57.541 6.251,55.745L6.251,55.724Z" style="fill:white;stroke:white;stroke-width:6.41px;"/>
            </g>
        </g>
    </g>
    <defs>
        <linearGradient id="_Linear1" x1="0" y1="0" x2="1" y2="0" gradientUnits="userSpaceOnUse" gradientTransform="matrix(9.18485e-15,150,-150,9.18485e-15,540,0)"><stop offset="0" style="stop-color:rgb(23,52,8);stop-opacity:1"/><stop offset="1" style="stop-color:rgb(30,100,2);stop-opacity:1"/></linearGradient>
    </defs>
</svg>
