<?xml version="1.0" encoding="UTF-8" standalone="no"?>
<!DOCTYPE svg PUBLIC "-//W3C//DTD SVG 1.1//EN" "http://www.w3.org/Graphics/SVG/1.1/DTD/svg11.dtd">
<svg width="100%" height="100%" viewBox="0 0 1080 150" version="1.1" xmlns="http://www.w3.org/2000/svg" xmlns:xlink="http://www.w3.org/1999/xlink" xml:space="preserve" xmlns:serif="http://www.serif.com/" style="fill-rule:evenodd;clip-rule:evenodd;stroke-linejoin:round;stroke-miterlimit:2;">
    <g transform="matrix(1,0,0,1,926.392,12.5)">
        <path d="M37.5,19.198L45.5,33.055C35.341,38.936 28.5,49.925 28.5,62.5C28.5,81.265 43.735,96.5 62.5,96.5C68.691,96.5 74.497,94.842 79.5,91.945L87.5,105.802C80.143,110.062 71.604,112.5 62.5,112.5C34.904,112.5 12.5,90.096 12.5,62.5C12.5,44.008 22.56,27.847 37.5,19.198ZM94.021,75.26L109.559,79.423C106.013,89.268 99.464,97.685 91.019,103.563L82.978,89.636C87.846,85.955 91.694,80.996 94.021,75.26ZM105.802,37.5C110.062,44.857 112.5,53.396 112.5,62.5C112.5,66.976 111.911,71.315 110.805,75.443L95.348,71.301C96.099,68.495 96.5,65.544 96.5,62.5C96.5,56.309 94.842,50.503 91.945,45.5L105.802,37.5ZM41.193,17.261C47.657,14.208 54.881,12.5 62.5,12.5C79.499,12.5 94.528,21.001 103.563,33.981L89.636,42.022C83.427,33.81 73.579,28.5 62.5,28.5C57.794,28.5 53.309,29.458 49.234,31.189L41.193,17.261Z" style="fill:white;fill-opacity:0.25;"/>
    </g>
</svg>
