<?xml version="1.0" encoding="UTF-8" standalone="no"?>
<!DOCTYPE svg PUBLIC "-//W3C//DTD SVG 1.1//EN" "http://www.w3.org/Graphics/SVG/1.1/DTD/svg11.dtd">
<svg width="100%" height="100%" viewBox="0 0 1080 150" version="1.1" xmlns="http://www.w3.org/2000/svg" xmlns:xlink="http://www.w3.org/1999/xlink" xml:space="preserve" xmlns:serif="http://www.serif.com/" style="fill-rule:evenodd;clip-rule:evenodd;stroke-linejoin:round;stroke-miterlimit:2;">
    <rect id="Hover" x="0" y="0" width="1080" height="150" style="fill:url(#_Linear1);"/>
    <g opacity="0.25">
        <g transform="matrix(1,0,0,1,907.892,2)">
            <path d="M81,23C108.596,23 131,45.404 131,73C131,100.596 108.596,123 81,123C53.404,123 31,100.596 31,73C31,45.404 53.404,23 81,23ZM81,39C99.765,39 115,54.235 115,73C115,91.765 99.765,107 81,107C62.235,107 47,91.765 47,73C47,54.235 62.235,39 81,39Z" style="fill:white;"/>
        </g>
        <g transform="matrix(1,0,0,1,920.894,39.3735)">
            <path d="M61.735,44.926C61.485,44.926 61.272,44.839 61.097,44.664C60.922,44.489 60.835,44.276 60.835,44.026L60.835,42.226C60.835,40.326 61.135,38.689 61.735,37.314C62.335,35.939 63.06,34.814 63.91,33.939C64.76,33.064 65.885,32.051 67.285,30.901C68.835,29.651 69.96,28.589 70.66,27.714C71.36,26.839 71.71,25.776 71.71,24.526C71.71,23.176 71.397,22.114 70.772,21.339C70.147,20.564 69.285,20.176 68.185,20.176C66.935,20.176 65.947,20.614 65.222,21.489C64.497,22.364 64.135,23.501 64.135,24.901L64.135,25.726C64.135,26.276 63.835,26.551 63.235,26.551L52.585,26.101C52.335,26.101 52.122,26.001 51.947,25.801C51.772,25.601 51.685,25.376 51.685,25.126L51.685,24.901C51.685,21.751 52.385,18.964 53.785,16.539C55.185,14.114 57.16,12.226 59.71,10.876C62.26,9.526 65.185,8.851 68.485,8.851C73.285,8.851 77.122,10.226 79.997,12.976C82.872,15.726 84.31,19.376 84.31,23.926C84.31,26.126 83.985,28.026 83.335,29.626C82.685,31.226 81.91,32.514 81.01,33.489C80.11,34.464 78.935,35.551 77.485,36.751C76.035,37.851 74.96,38.851 74.26,39.751C73.56,40.651 73.21,41.726 73.21,42.976L73.21,44.026C73.21,44.276 73.122,44.489 72.947,44.664C72.772,44.839 72.56,44.926 72.31,44.926L61.735,44.926ZM66.985,62.401C65.135,62.401 63.597,61.789 62.372,60.564C61.147,59.339 60.535,57.776 60.535,55.876C60.535,53.926 61.135,52.351 62.335,51.151C63.535,49.951 65.085,49.351 66.985,49.351C68.885,49.351 70.447,49.951 71.672,51.151C72.897,52.351 73.51,53.926 73.51,55.876C73.51,57.726 72.897,59.276 71.672,60.526C70.447,61.776 68.885,62.401 66.985,62.401Z" style="fill:white;fill-rule:nonzero;"/>
        </g>
    </g>
    <defs>
        <linearGradient id="_Linear1" x1="0" y1="0" x2="1" y2="0" gradientUnits="userSpaceOnUse" gradientTransform="matrix(9.18485e-15,150,-150,9.18485e-15,540,0)"><stop offset="0" style="stop-color:rgb(23,52,8);stop-opacity:1"/><stop offset="1" style="stop-color:rgb(30,100,2);stop-opacity:1"/></linearGradient>
    </defs>
</svg>
