<?xml version="1.0" encoding="UTF-8" standalone="no"?>
<!DOCTYPE svg PUBLIC "-//W3C//DTD SVG 1.1//EN" "http://www.w3.org/Graphics/SVG/1.1/DTD/svg11.dtd">
<svg width="100%" height="100%" viewBox="0 0 24 24" version="1.1" xmlns="http://www.w3.org/2000/svg" xmlns:xlink="http://www.w3.org/1999/xlink" xml:space="preserve" xmlns:serif="http://www.serif.com/" style="fill-rule:evenodd;clip-rule:evenodd;stroke-linejoin:round;stroke-miterlimit:2;">
    <path d="M16.5,4.478L16.5,4.705C17.799,4.824 19.093,4.995 20.378,5.217C20.736,5.279 21,5.593 21,5.956C21,6.367 20.661,6.706 20.25,6.706C20.207,6.706 20.164,6.702 20.122,6.695L19.913,6.66L18.908,19.73C18.788,21.284 17.476,22.5 15.917,22.5L8.084,22.5C6.525,22.5 5.213,21.284 5.093,19.73L4.087,6.66L3.878,6.695C3.836,6.702 3.793,6.706 3.75,6.706C3.339,6.706 3,6.367 3,5.956C3,5.593 3.264,5.279 3.622,5.217C4.907,4.994 6.201,4.824 7.5,4.705L7.5,4.478C7.5,2.914 8.713,1.578 10.316,1.527C11.439,1.491 12.562,1.491 13.685,1.527C15.288,1.578 16.5,2.914 16.5,4.478ZM10.364,3.026C11.455,2.991 12.546,2.991 13.637,3.026C14.39,3.05 15,3.684 15,4.478L15,4.591C13.002,4.47 10.998,4.47 9,4.591L9,4.478C9,3.684 9.609,3.05 10.364,3.026ZM10.009,8.971C9.994,8.57 9.66,8.249 9.259,8.249C8.847,8.249 8.508,8.588 8.508,9C8.508,9.01 8.509,9.019 8.509,9.029L8.856,18.029C8.871,18.429 9.205,18.75 9.605,18.75C10.017,18.75 10.356,18.411 10.356,18C10.356,17.99 10.355,17.981 10.355,17.971L10.009,8.971ZM15.489,9.029C15.49,9.011 15.491,8.993 15.491,8.974C15.491,8.563 15.152,8.224 14.741,8.224C14.331,8.224 13.993,8.561 13.991,8.971L13.644,17.971C13.644,17.981 13.643,17.99 13.643,18C13.643,18.412 13.982,18.751 14.394,18.751C14.795,18.751 15.129,18.43 15.144,18.029L15.489,9.029Z" style="fill:rgb(236,50,81);"/>
</svg>
