<?xml version="1.0" encoding="UTF-8" standalone="no"?>
<!DOCTYPE svg PUBLIC "-//W3C//DTD SVG 1.1//EN" "http://www.w3.org/Graphics/SVG/1.1/DTD/svg11.dtd">
<svg width="100%" height="100%" viewBox="0 0 24 24" version="1.1" xmlns="http://www.w3.org/2000/svg" xmlns:xlink="http://www.w3.org/1999/xlink" xml:space="preserve" xmlns:serif="http://www.serif.com/" style="fill-rule:evenodd;clip-rule:evenodd;stroke-linejoin:round;stroke-miterlimit:2;">
    <g transform="matrix(0.652103,0,0,0.652103,1.99996,1.15912)">
        <path d="M26.002,6.953C24.002,6.038 21.879,5.372 19.662,5C19.383,5.48 19.073,6.131 18.856,6.643C16.499,6.302 14.159,6.302 11.834,6.643C11.617,6.131 11.291,5.48 11.028,5C8.796,5.372 6.672,6.038 4.687,6.953C0.673,12.874 -0.412,18.655 0.13,24.359C2.796,26.296 5.369,27.474 7.897,28.249C8.517,27.412 9.075,26.513 9.555,25.568C8.641,25.227 7.773,24.808 6.936,24.312C7.153,24.157 7.37,23.987 7.571,23.816C12.624,26.126 18.097,26.126 23.088,23.816C23.305,23.987 23.506,24.157 23.723,24.312C22.886,24.808 22.018,25.227 21.104,25.568C21.584,26.513 22.142,27.412 22.762,28.249C25.289,27.474 27.877,26.296 30.529,24.359C31.195,17.756 29.473,12.021 26.002,6.953ZM10.253,20.84C8.734,20.84 7.494,19.461 7.494,17.771C7.494,16.082 8.703,14.703 10.253,14.703C11.787,14.703 13.043,16.082 13.012,17.771C13.012,19.461 11.787,20.84 10.253,20.84ZM20.437,20.84C18.918,20.84 17.677,19.461 17.677,17.771C17.677,16.082 18.887,14.703 20.437,14.703C21.972,14.703 23.227,16.082 23.196,17.771C23.196,19.461 21.987,20.84 20.437,20.84Z" style="fill:white;fill-rule:nonzero;"/>
    </g>
</svg>
