<?xml version="1.0" encoding="UTF-8" standalone="no"?>
<!DOCTYPE svg PUBLIC "-//W3C//DTD SVG 1.1//EN" "http://www.w3.org/Graphics/SVG/1.1/DTD/svg11.dtd">
<svg width="100%" height="100%" viewBox="0 0 24 24" version="1.1" xmlns="http://www.w3.org/2000/svg" xmlns:xlink="http://www.w3.org/1999/xlink" xml:space="preserve" xmlns:serif="http://www.serif.com/" style="fill-rule:evenodd;clip-rule:evenodd;stroke-linejoin:round;stroke-miterlimit:2;">
    <path d="M21.731,2.269C20.713,1.251 19.037,1.251 18.019,2.269L16.862,3.426L20.574,7.138L21.731,5.981C22.749,4.963 22.749,3.287 21.731,2.269ZM19.513,8.199L15.801,4.487L7.401,12.887C6.784,13.504 6.33,14.265 6.081,15.101L5.281,17.786C5.26,17.856 5.25,17.928 5.25,18C5.25,18.412 5.588,18.75 6,18.75C6.072,18.75 6.144,18.74 6.214,18.719L8.899,17.919C9.735,17.67 10.496,17.216 11.113,16.599L19.513,8.199Z" style="fill:white;fill-rule:nonzero;"/>
    <path d="M5.25,5.25C3.604,5.25 2.25,6.604 2.25,8.25L2.25,18.75C2.25,20.396 3.604,21.75 5.25,21.75L15.75,21.75C17.396,21.75 18.75,20.396 18.75,18.75L18.75,13.5C18.75,13.089 18.411,12.75 18,12.75C17.589,12.75 17.25,13.089 17.25,13.5L17.25,18.75C17.25,19.573 16.573,20.25 15.75,20.25L5.25,20.25C4.427,20.25 3.75,19.573 3.75,18.75L3.75,8.25C3.75,7.427 4.427,6.75 5.25,6.75L10.5,6.75C10.911,6.75 11.25,6.411 11.25,6C11.25,5.589 10.911,5.25 10.5,5.25L5.25,5.25Z" style="fill:white;fill-rule:nonzero;"/>
</svg>
