<?xml version="1.0" encoding="UTF-8" standalone="no"?>
<!DOCTYPE svg PUBLIC "-//W3C//DTD SVG 1.1//EN" "http://www.w3.org/Graphics/SVG/1.1/DTD/svg11.dtd">
<svg width="100%" height="100%" viewBox="0 0 24 24" version="1.1" xmlns="http://www.w3.org/2000/svg" xmlns:xlink="http://www.w3.org/1999/xlink" xml:space="preserve" xmlns:serif="http://www.serif.com/" style="fill-rule:evenodd;clip-rule:evenodd;stroke-linejoin:round;stroke-miterlimit:2;">
    <path d="M12,1.27C11.974,1.27 11.949,1.27 11.923,1.27C5.889,1.27 0.923,6.235 0.923,12.27C0.923,17.021 4.002,21.26 8.52,22.73C9.07,22.82 9.25,22.45 9.25,22.18L9.25,20.34C6.22,20.98 5.58,18.88 5.58,18.88C5.03,17.59 4.3,17.23 4.3,17.23C3.38,16.58 4.4,16.58 4.4,16.58C5.5,16.58 6.13,17.68 6.13,17.68C7.05,19.33 8.7,18.88 9.34,18.6C9.339,18.042 9.571,17.509 9.98,17.13C7.51,16.86 4.94,15.94 4.94,11.63C4.94,10.53 5.4,9.53 6.14,8.79C5.744,7.854 5.744,6.796 6.14,5.86C6.536,4.924 7.05,5.58 9.25,6.96C11.05,6.47 12.95,6.47 14.75,6.96C16.85,5.58 17.77,5.86 17.77,5.86C18.166,6.796 18.166,7.854 17.77,8.79C18.6,9.53 18.97,10.53 18.97,11.73C18.97,15.94 16.4,16.86 13.93,17.13C14.38,17.5 14.75,18.05 14.75,19.15L14.75,22.18C14.75,22.45 14.85,22.82 15.48,22.73C19.998,21.26 23.077,17.021 23.077,12.27C23.077,6.235 18.111,1.27 12.077,1.27C12.051,1.27 12.026,1.27 12,1.27" style="fill:white;fill-rule:nonzero;"/>
</svg>
