<?xml version="1.0" encoding="UTF-8" standalone="no"?>
<!DOCTYPE svg PUBLIC "-//W3C//DTD SVG 1.1//EN" "http://www.w3.org/Graphics/SVG/1.1/DTD/svg11.dtd">
<svg width="100%" height="100%" viewBox="0 0 24 24" version="1.1" xmlns="http://www.w3.org/2000/svg" xmlns:xlink="http://www.w3.org/1999/xlink" xml:space="preserve" xmlns:serif="http://www.serif.com/" style="fill-rule:evenodd;clip-rule:evenodd;stroke-linejoin:round;stroke-miterlimit:2;">
    <path d="M22,12.14C21.996,10.941 21.009,9.957 19.81,9.957C19.243,9.957 18.698,10.177 18.29,10.57C16.556,9.399 14.522,8.749 12.43,8.7L13.43,4L16.7,4.71C16.737,5.539 17.429,6.201 18.258,6.201C19.114,6.201 19.818,5.497 19.818,4.641C19.818,3.785 19.114,3.081 18.258,3.081C17.666,3.081 17.123,3.419 16.86,3.95L13.22,3.18C13.11,3.16 13,3.18 12.93,3.24C12.84,3.29 12.79,3.38 12.77,3.5L11.66,8.72C9.33,8.79 7.23,9.5 5.71,10.58C5.296,10.2 4.752,9.992 4.19,10C4.169,9.999 4.149,9.999 4.128,9.999C2.943,9.999 1.968,10.974 1.968,12.159C1.968,13.027 2.49,13.814 3.29,14.15C3.253,14.368 3.236,14.589 3.24,14.81C3.24,18.18 7.16,20.93 12,20.93C16.84,20.93 20.76,18.2 20.76,14.81C20.76,14.6 20.75,14.37 20.71,14.15C21.495,13.791 22,13.003 22,12.14M7,13.7C7,12.84 7.68,12.14 8.54,12.14C9.4,12.14 10.1,12.84 10.1,13.7C10.1,14.556 9.396,15.26 8.54,15.26C7.68,15.28 7,14.56 7,13.7M15.71,17.84C14.63,18.92 12.59,19 12,19C11.39,19 9.35,18.9 8.29,17.84C8.214,17.765 8.171,17.662 8.171,17.555C8.171,17.448 8.214,17.345 8.29,17.27C8.365,17.194 8.468,17.151 8.575,17.151C8.682,17.151 8.785,17.194 8.86,17.27C9.54,17.95 11,18.18 12,18.18C13,18.18 14.47,17.95 15.14,17.27C15.215,17.194 15.318,17.151 15.425,17.151C15.532,17.151 15.635,17.194 15.71,17.27C15.85,17.43 15.85,17.68 15.71,17.84M15.42,15.28C14.56,15.28 13.86,14.58 13.86,13.72C13.86,12.864 14.564,12.16 15.42,12.16C16.28,12.16 17,12.86 17,13.72C16.979,14.575 16.275,15.27 15.42,15.28Z" style="fill:white;fill-rule:nonzero;"/>
</svg>
