<?xml version="1.0" encoding="UTF-8" standalone="no"?>
<!DOCTYPE svg PUBLIC "-//W3C//DTD SVG 1.1//EN" "http://www.w3.org/Graphics/SVG/1.1/DTD/svg11.dtd">
<svg width="100%" height="100%" viewBox="0 0 64 64" version="1.1" xmlns="http://www.w3.org/2000/svg" xmlns:xlink="http://www.w3.org/1999/xlink" xml:space="preserve" xmlns:serif="http://www.serif.com/" style="fill-rule:evenodd;clip-rule:evenodd;stroke-linejoin:round;stroke-miterlimit:2;">
    <g id="Logo_1_">
        <g id="g890">
            <path id="circle886" d="M32,-0C49.661,-0 64,14.339 64,32C64,49.661 49.661,64 32,64C14.339,64 -0,49.661 -0,32C-0,14.339 14.339,-0 32,-0ZM53.346,32C53.346,29.403 51.246,27.341 48.687,27.341C47.427,27.341 46.282,27.838 45.442,28.64C42.234,26.348 37.842,24.859 32.955,24.668L35.093,14.663L42.043,16.153C42.119,17.909 43.57,19.322 45.365,19.322C47.198,19.322 48.687,17.833 48.687,16C48.687,14.167 47.198,12.678 45.365,12.678C44.067,12.678 42.921,13.442 42.387,14.549L34.635,12.907C34.406,12.869 34.177,12.907 34.024,13.021C33.833,13.136 33.718,13.327 33.68,13.556L31.313,24.706C26.348,24.859 21.881,26.348 18.635,28.678C17.795,27.876 16.649,27.379 15.389,27.379C12.792,27.379 10.73,29.48 10.73,32.038C10.73,33.947 11.876,35.551 13.48,36.277C13.403,36.735 13.365,37.193 13.365,37.69C13.365,44.869 21.728,50.711 32.038,50.711C42.348,50.711 50.711,44.907 50.711,37.69C50.711,37.232 50.673,36.735 50.597,36.277C52.2,35.551 53.346,33.909 53.346,32ZM39.943,44.143C37.652,46.434 33.298,46.587 32.038,46.587C30.74,46.587 26.387,46.396 24.134,44.143C23.79,43.8 23.79,43.265 24.134,42.921C24.477,42.578 25.012,42.578 25.356,42.921C26.807,44.372 29.862,44.869 32.038,44.869C34.215,44.869 37.308,44.372 38.721,42.921C39.064,42.578 39.599,42.578 39.943,42.921C40.248,43.265 40.248,43.8 39.943,44.143ZM39.332,38.683C37.499,38.683 36.01,37.193 36.01,35.36C36.01,33.527 37.499,32.038 39.332,32.038C41.165,32.038 42.654,33.527 42.654,35.36C42.654,37.155 41.165,38.683 39.332,38.683ZM21.346,35.322C21.346,33.489 22.835,32 24.668,32C26.501,32 27.99,33.489 27.99,35.322C27.99,37.155 26.501,38.644 24.668,38.644C22.835,38.683 21.346,37.155 21.346,35.322Z" style="fill:white;"/>
        </g>
    </g>
</svg>
